<?xml version="1.0" encoding="utf-8"?>
<!-- Generator: Adobe Illustrator 18.1.1, SVG Export Plug-In . SVG Version: 6.00 Build 0)  -->
<svg version="1.1"  xmlns="http://www.w3.org/2000/svg" xmlns:xlink="http://www.w3.org/1999/xlink" x="0px" y="0px"
	 viewBox="0 0 48 48" enable-background="new 0 0 48 48" xml:space="preserve">
<g>
	<path fill="#FFA000" d="M40,12H22l-4-4H8c-2.2,0-4,1.8-4,4v8h40v-4C44,13.8,42.2,12,40,12z"/>
</g>
<g>
	<path fill="#FFCA28" d="M40,12H8c-2.2,0-4,1.8-4,4v20c0,2.2,1.8,4,4,4h32c2.2,0,4-1.8,4-4V16C44,13.8,42.2,12,40,12z"/>
</g>
<path fill="#FF5722" d="M29.9,21.5c0,0.1-0.5,3.4-2.1,4.8c2.1-6.8-3.7-10.7-3.7-10.7s-0.9,5.1-2.7,7c-0.1-2.2-1.3-3.5-1.3-3.5
	c-0.9,4-4,7.3-4,9.9c0,4.4,3.6,8,8,8s8-3.6,8-8C32,25.8,31.1,23.5,29.9,21.5z"/>
<path fill="#FFCCBC" d="M26.7,33c0,1.5-1.2,2.7-2.7,2.7s-2.7-1.2-2.7-2.7s2.7-6.7,2.7-6.7S26.7,31.5,26.7,33z"/>
</svg>
